# xmcd CD database file
#
# Track frame offsets:
#	150
#	21261
#	43461
#	72896
#	95447
#	116525
#	146003
#	160078
#	184973
#	211359
#	233488
#	245682
#	258172
#	269403
#	286328
#
# Disc length: 4074 seconds
#
# Revision: 0
# Processed by: cddbd v1.5.2PL0 Copyright (c) Steve Scherf et al.
# Submitted via: CDex 1.70beta2
#
DISCID=de0fe80f
DTITLE=Various Artist - Hank and Frank II
DYEAR=2009
DGENRE=Jazz
TTITLE0=Sunday
TTITLE1=Lord Prepare Me
TTITLE2=More Than You Know
TTITLE3=If I Were a Bell
TTITLE4=I Had the Craziest Dream
TTITLE5=When Your Lover Has Gone
TTITLE6=Chasing the Bird
TTITLE7=Ill Wind
TTITLE8=Jordu
TTITLE9=The First Time I Saw Ella
TTITLE10=Quintessence
TTITLE11=You Don't Know What Love Is
TTITLE12=Stay As Sweet As You Are
TTITLE13=For All We Know
TTITLE14=I'll Be Seeing You
EXTD=YEAR: 2009
EXTT0=
EXTT1=
EXTT2=
EXTT3=
EXTT4=
EXTT5=
EXTT6=
EXTT7=
EXTT8=
EXTT9=
EXTT10=
EXTT11=
EXTT12=
EXTT13=
EXTT14=
PLAYORDER=
